<svg width="166" height="47" viewBox="0 0 166 47" fill="none" xmlns="http://www.w3.org/2000/svg">
<path d="M10.4672 11.7129C12.2543 12.3568 13.4492 13.2153 14.6547 14.705C16.4629 16.927 17.3406 19.4899 17.3406 22.5072C17.3406 27.5698 14.5595 31.9254 10.4143 33.3268L9.56836 33.6172L10.8373 33.5667C12.3071 33.5162 13.0156 33.3142 14.2634 32.5946C16.8964 31.1048 18.6835 28.4915 19.3709 25.1837C19.6669 23.7319 19.6881 21.472 19.4132 20.0454C18.7681 16.6619 16.9176 13.9223 14.2634 12.4199C13.0156 11.7003 12.3071 11.4983 10.8373 11.4478L9.56836 11.3973L10.4672 11.7129Z" fill="white"/>
<path d="M6.9661 12.7987C9.34535 13.5436 11.3439 15.5005 12.4225 18.1517C13.0993 19.8182 13.2579 20.6388 13.2579 22.5073C13.2579 24.3758 13.0993 25.1964 12.4225 26.8629C11.3439 29.5142 9.34535 31.471 6.9661 32.2159L6.18359 32.4684H7.0084C10.7412 32.5063 14.051 29.451 15.0767 25.0197C15.3411 23.8961 15.3411 21.1186 15.0767 19.995C14.051 15.5636 10.7517 12.5084 7.0084 12.5462H6.18359L6.9661 12.7987Z" fill="white"/>
<path d="M4.35387 14.3637C4.38559 14.4142 4.798 14.6035 5.2527 14.7929C6.26784 15.2095 7.0715 15.8282 7.89631 16.8255C9.13351 18.3153 9.72568 19.9818 9.81028 22.128C9.86315 23.7187 9.68338 24.7666 9.12294 26.168C8.58364 27.5189 7.26184 29.0843 6.04578 29.804C5.55936 30.0943 5.00949 30.3595 4.798 30.41C4.59708 30.4478 4.40674 30.5488 4.37502 30.612C4.29042 30.7761 5.64395 30.6246 6.44761 30.3847C8.22411 29.8418 9.96889 28.1249 10.762 26.1554C11.3118 24.7792 11.4599 23.9839 11.4599 22.5067C11.4599 21.0296 11.3118 20.2343 10.762 18.8581C9.96889 16.8886 8.22411 15.1717 6.44761 14.6288C5.77084 14.4268 4.24813 14.2374 4.35387 14.3637Z" fill="white"/>
<path d="M3.34995 16.7124C4.71405 17.2301 6.02528 18.6946 6.56458 20.3232C6.77607 20.9418 6.80779 21.2827 6.80779 22.5073C6.80779 23.7319 6.77607 24.0728 6.56458 24.6914C6.02528 26.32 4.71405 27.7845 3.34995 28.3021L2.69434 28.5546H3.13846C6.10988 28.6051 8.542 25.108 8.03442 21.5225C7.6326 18.6567 5.46484 16.4221 3.13846 16.4599H2.69434L3.34995 16.7124Z" fill="white"/>
<path d="M2.50397 19.0352C3.20188 19.4519 3.94209 20.4366 4.16416 21.2067C4.25933 21.535 4.33335 22.1157 4.33335 22.5071C4.33335 22.8985 4.25933 23.4792 4.16416 23.8075C3.94209 24.5776 3.20188 25.5623 2.50397 25.979L1.9541 26.3198L2.46167 26.2441C3.43452 26.1052 4.28048 25.3603 4.74575 24.2493C5.36964 22.7722 5.13701 20.9416 4.18531 19.818C3.68831 19.2246 3.09614 18.8585 2.46167 18.7701L1.9541 18.6944L2.50397 19.0352Z" fill="white"/>
<path d="M1.49907 20.4494C1.98549 21.068 2.15468 21.6235 2.15468 22.5072C2.15468 23.391 1.98549 23.9465 1.49907 24.5525C1.17126 24.9691 1.26643 25.007 1.75285 24.6408C2.94776 23.7697 2.94776 21.2447 1.75285 20.3736C1.26643 20.0075 1.17126 20.0454 1.49907 20.4494Z" fill="white"/>
<path d="M24.835 21.2373C24.8445 26.7702 24.902 27.6099 25.3427 28.4603C25.8312 29.3752 26.2623 29.6444 27.6897 29.8812C29.0309 30.1072 32.2784 30.2041 33.974 30.0534C36.5605 29.8274 37.5568 29.4614 38.0357 28.5464C38.4956 27.6637 38.5339 27.1793 38.5339 21.4526V16.1564H37.0011H35.4684V21.2158C35.4684 27.0393 35.5355 26.6195 34.5392 26.7702C33.8207 26.8779 29.8643 26.8779 29.0309 26.7702C28.6381 26.7272 28.2932 26.6088 28.1687 26.4904L27.9484 26.2966L27.9196 21.2265L27.8909 16.1564H26.3677H24.835V21.2373Z" fill="white"/>
<path d="M40.2582 17.825V19.4935L44.1954 19.5151L48.1423 19.5474L44.0038 23.401L39.875 27.2547V28.7079V30.1504H46.4371H52.9992V28.4819V26.8134L48.9086 26.7919L44.8181 26.7596L48.9086 22.8951L52.9992 19.0307V17.5882V16.1565H46.6287H40.2582V17.825Z" fill="white"/>
<path d="M54.4365 17.825V19.4935H56.8793H59.3222V24.822V30.1504H60.8549H62.3876V24.822V19.4935H64.8305H67.2733V17.825V16.1565H60.8549H54.4365V17.825Z" fill="white"/>
<path d="M68.8057 23.1535V30.1504H74.7451H80.6845V28.4819V26.8134H76.2778H71.8616L71.8903 25.7585L71.9191 24.7143L76.1629 24.682L80.3971 24.6605V23.0458V21.4311H76.1341H71.8712V20.4623V19.4935H76.2778H80.6845V17.825V16.1565H74.7451H68.8057V23.1535Z" fill="white"/>
<path d="M82.4092 23.153V30.1499H88.157H93.9048V28.4814V26.8129H89.6897H85.4747V21.4845V16.156H83.9419H82.4092V23.153Z" fill="white"/>
<path d="M95.3418 23.1535V30.1504H101.281H107.221V28.4819V26.8134H102.814H98.3977L98.4265 25.7585L98.4552 24.7143L102.699 24.682L106.933 24.6605V23.0458V21.4311H102.67H98.4073V20.4623V19.4935H102.814H107.221V17.825V16.1565H101.281H95.3418V23.1535Z" fill="white"/>
<path d="M129.541 16.264C125.862 16.5331 124.617 17.4696 124.368 20.1607C124.243 21.474 124.243 24.8864 124.368 26.1135C124.588 28.2664 125.479 29.3213 127.481 29.795C128.65 30.0749 134.676 30.0749 135.911 29.795C137.013 29.5474 137.664 29.2137 138.191 28.6109C138.814 27.9112 139.015 27.2115 139.149 25.2846C139.283 23.304 139.13 19.8486 138.881 19.0089C138.402 17.4266 137.329 16.6623 135.241 16.3932C133.976 16.2209 131.026 16.1563 129.541 16.264ZM134.465 19.5041C135.691 19.6763 135.729 19.6979 135.93 20.4299C136.256 21.657 136.103 25.9951 135.71 26.4364C135.404 26.7809 134.541 26.867 131.6 26.8563C128.181 26.8455 127.874 26.7917 127.577 26.1135C127.405 25.7152 127.385 25.4676 127.385 23.1533C127.385 19.7517 127.405 19.6979 128.909 19.5041C129.934 19.3642 133.497 19.3749 134.465 19.5041Z" fill="white"/>
<path d="M140.94 23.153V30.1499H142.473H144.006L144.025 25.5535L144.054 20.957L146.688 25.5427L149.323 30.1391H150.233L151.152 30.1499L153.777 25.575L156.412 21.0001L156.44 25.575L156.46 30.1499H157.992H159.525V23.153V16.156H157.532H155.53L152.915 20.8924C151.478 23.4974 150.271 25.6288 150.242 25.6288C150.214 25.6288 149.026 23.5082 147.598 20.914L145.012 16.2099L142.981 16.1776L140.94 16.156V23.153Z" fill="white"/>
<path d="M112.968 16.3717C109.625 16.8884 108.887 18.1479 108.907 23.3148C108.916 25.7907 109.022 26.6303 109.481 27.7821C110.142 29.4398 111.503 29.9996 115.124 30.118C118.141 30.2149 120.239 29.9135 121.216 29.2568C122.107 28.654 122.481 27.5991 122.606 25.3278L122.673 24.2298H121.14H119.607L119.55 25.0264C119.463 26.0813 119.253 26.6841 118.917 26.7918C118.783 26.8348 117.423 26.8671 115.89 26.8671C112.671 26.8563 112.461 26.8133 112.154 26.1136C111.79 25.274 111.848 20.9359 112.231 20.0424C112.403 19.6334 113.026 19.5042 115.076 19.4288C116.867 19.3642 118.841 19.4934 119.186 19.7087C119.406 19.8379 119.578 20.6345 119.578 21.5387V22.1845H121.13H122.673L122.615 20.9143C122.462 17.9756 121.839 17.0176 119.741 16.5224C118.927 16.3179 113.984 16.221 112.968 16.3717Z" fill="white"/>
</svg>
